<?xml version="1.0" standalone="no"?>
<!DOCTYPE svg PUBLIC "-//W3C//DTD SVG 20010904//EN"
 "http://www.w3.org/TR/2001/REC-SVG-20010904/DTD/svg10.dtd">
<svg version="1.0" xmlns="http://www.w3.org/2000/svg"
 width="640.000000pt" height="457.000000pt" viewBox="0 0 640.000000 457.000000"
 preserveAspectRatio="xMidYMid meet">
<metadata>
Created by potrace 1.16, written by Peter Selinger 2001-2019
</metadata>
<g transform="translate(0.000000,457.000000) scale(0.100000,-0.100000)"
fill="#000000" stroke="none">
<path d="M3244 4094 c-26 -25 -29 -61 -10 -105 5 -11 -4 -24 -31 -43 -21 -14
-58 -53 -83 -86 -25 -32 -48 -59 -52 -60 -4 0 -27 13 -51 30 -24 16 -71 41
-105 56 -55 24 -62 30 -62 55 0 41 -32 69 -77 69 -40 0 -50 -5 -71 -31 -10
-14 -10 -25 3 -63 16 -45 15 -47 -8 -79 -32 -42 -67 -112 -67 -133 0 -13 -5
-15 -22 -9 -13 4 -88 10 -168 12 -108 4 -149 9 -161 19 -9 8 -32 17 -52 21
-69 11 -114 -74 -67 -125 23 -25 49 -27 95 -11 28 11 38 9 84 -17 29 -15 65
-44 81 -64 l29 -36 -30 -45 c-24 -36 -29 -51 -24 -79 13 -71 48 -101 130 -110
49 -5 50 -6 53 -42 2 -22 -5 -52 -17 -75 -32 -64 -36 -105 -12 -157 11 -25 28
-49 37 -53 27 -10 176 72 228 126 25 25 63 64 83 86 21 22 50 46 65 54 23 12
44 48 34 58 -2 2 -38 -12 -81 -32 -88 -40 -193 -112 -224 -152 -14 -20 -20
-23 -21 -12 0 41 155 151 283 200 54 21 82 48 35 34 -102 -31 -266 -130 -335
-202 -18 -19 -33 -29 -33 -21 0 7 33 44 73 82 39 39 65 66 57 61 -54 -31 -132
-91 -145 -112 -25 -37 -31 -19 -7 19 47 76 201 169 368 223 46 16 99 41 124
61 23 19 38 34 33 34 -22 0 -171 -53 -272 -97 -125 -54 -162 -76 -218 -131
l-42 -41 6 37 c7 43 11 51 22 34 5 -8 22 0 59 28 29 21 53 43 53 47 0 20 -31
10 -74 -23 -26 -20 -50 -35 -52 -32 -3 2 -9 27 -14 53 -9 48 -8 50 24 81 127
119 484 236 712 233 67 -1 65 -1 -52 -19 -141 -22 -314 -63 -402 -96 -151 -57
-320 -164 -259 -164 7 0 34 18 59 40 25 22 50 40 57 40 6 0 32 12 58 26 77 43
184 80 284 99 51 10 100 20 108 23 35 11 278 14 284 3 4 -6 1 -11 -6 -11 -7 0
-19 -9 -25 -19 -13 -21 -5 -37 37 -65 24 -16 24 -16 -28 -16 -28 0 -52 5 -52
10 0 6 10 10 21 10 19 0 20 2 8 16 -12 14 -28 16 -113 10 -57 -4 -103 -11
-107 -18 -4 -6 -15 -8 -24 -4 -18 6 -225 -53 -225 -65 0 -4 35 4 78 18 56 18
107 27 190 30 61 3 112 1 112 -3 0 -5 -37 -18 -82 -28 -46 -10 -77 -21 -70
-23 7 -3 33 0 57 6 50 13 135 14 162 4 14 -6 8 -9 -22 -14 l-40 -5 53 -9 c28
-4 52 -11 52 -16 0 -5 -4 -9 -10 -9 -5 0 -10 -4 -10 -10 0 -5 16 -10 35 -10
38 0 47 -15 15 -25 -33 -10 -23 -25 18 -25 l37 -1 -22 -18 c-30 -25 -29 -31 7
-31 36 0 39 -14 8 -32 l-23 -12 24 -6 c32 -7 38 -26 12 -35 -24 -7 -28 -25 -6
-25 21 0 19 -10 -7 -37 -19 -21 -20 -25 -8 -34 13 -8 13 -11 -2 -20 -25 -14
-22 -27 5 -31 19 -3 16 -6 -18 -22 -48 -21 -124 -36 -130 -26 -5 7 22 23 68
40 30 11 35 25 12 34 -22 8 -18 26 6 26 18 0 21 4 16 29 -4 18 -2 31 5 33 7 3
6 11 -3 26 -12 20 -12 24 1 32 13 9 13 12 -4 25 -10 7 -15 19 -11 25 4 7 -2
18 -13 26 -12 8 -19 21 -16 28 4 9 -5 16 -25 21 -29 6 -44 25 -21 25 6 0 10 4
10 10 0 5 -8 9 -17 8 -10 -1 -36 0 -58 1 l-40 2 30 13 c27 12 28 14 11 21 -22
10 -117 -7 -166 -28 l-35 -15 29 -1 c28 -1 26 -3 -23 -27 -36 -18 -49 -29 -40
-35 10 -6 7 -13 -12 -28 -20 -17 -22 -22 -9 -30 12 -9 12 -11 -3 -17 -20 -7
-23 -30 -4 -38 10 -5 10 -7 0 -12 -16 -7 -17 -34 -2 -34 6 0 9 -7 5 -15 -7
-20 3 -45 20 -45 8 0 11 -6 8 -15 -10 -24 -23 -17 -41 20 -9 19 -21 35 -26 35
-4 0 5 -26 22 -57 17 -31 28 -59 25 -62 -3 -3 -10 1 -14 10 -9 15 -14 14 -62
-2 -29 -10 -63 -18 -76 -19 -40 0 -14 18 44 31 54 12 73 27 59 48 -4 7 -16 3
-34 -10 -15 -11 -48 -23 -72 -25 -74 -9 -89 -13 -83 -28 3 -7 -6 -21 -20 -30
-15 -9 -26 -22 -26 -29 0 -7 -20 -29 -45 -47 -50 -38 -69 -62 -79 -102 -3 -16
-11 -28 -16 -28 -6 0 -10 -6 -10 -12 -1 -20 -43 -65 -67 -72 -24 -8 -101 -89
-113 -120 -6 -17 -16 -19 -71 -18 -47 1 -57 -1 -39 -8 14 -4 40 -8 58 -9 17
-1 32 -4 32 -7 0 -3 -13 -18 -28 -34 -20 -20 -42 -30 -81 -35 -29 -4 -49 -11
-44 -15 4 -4 58 -13 118 -19 61 -7 126 -15 145 -17 l35 -5 -40 21 c-28 15 -51
20 -77 17 -29 -4 -38 -2 -38 9 0 25 27 27 104 9 103 -24 106 -27 67 -64 -47
-44 -39 -65 24 -68 28 -1 124 -5 215 -9 139 -5 191 -3 335 16 94 12 190 26
215 31 62 12 301 23 333 15 56 -14 23 -24 -100 -30 -71 -4 -180 -14 -243 -22
-259 -32 -303 -35 -489 -35 -157 0 -201 -3 -227 -15 -37 -18 -74 -69 -74 -103
0 -14 -6 -21 -19 -21 -33 0 -121 23 -121 31 0 14 35 28 50 20 25 -14 70 -22
70 -13 0 4 -15 12 -32 17 -46 14 -37 29 19 36 27 3 36 7 20 7 -15 1 -35 11
-44 22 -47 54 -163 -13 -163 -95 0 -13 -6 -16 -25 -11 -44 11 -26 -10 28 -32
59 -25 115 -30 60 -6 -34 15 -42 29 -20 37 6 2 42 -4 78 -14 164 -45 591 -51
632 -9 9 9 -7 10 -68 5 -139 -11 -238 -14 -292 -8 -94 10 -45 23 90 23 73 0
150 5 172 9 22 5 69 12 105 16 35 3 67 8 70 12 3 3 -20 3 -50 -1 -30 -3 -130
-9 -222 -13 -152 -5 -168 -4 -168 11 0 14 16 16 133 16 72 0 170 6 217 14 47
8 107 17 133 21 27 4 47 8 45 11 -3 2 -72 -3 -154 -11 -200 -20 -377 -20 -394
0 -7 8 -11 15 -9 15 2 0 83 2 179 4 97 1 220 10 275 19 237 39 541 58 575 37
21 -13 5 -17 -105 -27 l-90 -8 110 -6 c124 -7 115 -6 115 -19 0 -6 -36 -10
-87 -10 -132 0 -132 -16 -2 -24 106 -6 128 -10 118 -20 -2 -2 -68 -8 -147 -12
-78 -4 -141 -9 -139 -11 2 -2 51 -6 108 -9 234 -11 217 -23 -60 -39 -96 -6
-86 -15 17 -16 51 -1 97 -3 102 -4 6 -1 22 -3 36 -4 14 0 23 -5 20 -10 -3 -5
-53 -12 -111 -16 -58 -4 -108 -11 -111 -16 -3 -5 42 -9 100 -9 58 0 106 -4
106 -9 0 -5 -61 -14 -135 -21 -74 -7 -135 -16 -135 -21 0 -4 54 -5 120 -2 82
3 120 1 120 -6 0 -6 -8 -11 -17 -11 -22 0 -181 -19 -248 -30 -37 -6 -12 -8 93
-8 205 0 204 -11 -3 -32 -154 -16 -163 -33 -12 -25 74 4 117 2 117 -4 0 -5 -8
-10 -17 -10 -10 0 -67 -7 -128 -15 -60 -9 -118 -16 -127 -16 -10 0 -18 -5 -18
-10 0 -11 139 -6 203 6 16 3 27 1 27 -5 0 -6 -1 -11 -3 -11 -19 0 -292 -42
-296 -45 -11 -12 12 -12 127 -1 187 18 147 -5 -54 -31 -93 -12 -180 -24 -194
-27 -34 -6 200 3 267 11 32 3 53 2 53 -4 0 -10 -249 -48 -392 -59 -43 -4 -78
-10 -78 -13 0 -8 105 -4 256 9 123 11 170 12 162 5 -5 -5 -179 -28 -298 -40
-174 -17 -570 4 -539 28 2 2 65 1 139 -3 177 -9 211 3 55 20 -66 6 -127 15
-135 18 -8 4 42 8 113 10 70 1 127 6 127 11 0 9 -72 21 -129 21 -20 0 -42 4
-50 9 -25 16 8 23 83 16 87 -8 116 9 34 20 -91 12 -90 24 2 25 82 1 133 11
114 22 -5 3 -26 6 -48 6 -47 2 -76 10 -76 23 0 5 46 10 103 10 l102 2 -70 9
c-169 21 -168 21 -61 29 129 10 152 22 56 29 -41 3 -75 10 -75 15 0 6 44 12
102 15 56 3 104 8 108 12 4 3 -35 10 -87 14 -78 6 -87 9 -58 15 19 4 70 11
113 14 42 4 77 11 77 16 0 6 -94 7 -237 5 -226 -5 -308 0 -301 17 2 4 121 8
265 10 187 1 265 5 274 14 9 9 -42 11 -230 6 -178 -4 -265 -3 -328 7 l-86 14
-31 -37 c-17 -20 -40 -48 -52 -63 -19 -25 -22 -26 -57 -15 -47 16 -47 29 1 33
l37 3 -37 19 c-47 24 -41 37 13 25 65 -15 67 2 3 22 l-59 18 -69 -47 c-216
-146 -218 -148 -241 -192 -22 -42 -24 -111 -4 -141 9 -12 47 -34 89 -50 66
-26 76 -27 89 -14 14 13 12 15 -14 16 -43 0 -119 34 -123 53 -4 20 -10 21 89
-13 46 -16 117 -36 157 -44 41 -9 76 -18 80 -21 13 -14 -9 -14 -81 1 -59 12
-80 13 -91 4 -24 -20 -56 -99 -56 -139 0 -21 -5 -43 -12 -50 -13 -13 -16 -117
-4 -129 3 -3 36 -8 73 -10 89 -5 176 -11 186 -12 5 -1 6 -5 3 -9 -7 -12 -243
-4 -284 9 -17 6 -37 19 -42 30 -12 22 -7 24 21 9 13 -8 19 -7 19 0 0 6 -12 15
-26 20 -29 11 -71 13 -61 3 4 -3 3 -11 -2 -17 -14 -16 4 -97 34 -155 23 -46
30 -52 78 -65 28 -8 99 -17 157 -21 124 -7 162 -13 154 -26 -8 -13 -131 -11
-214 3 -61 11 -72 10 -86 -4 -15 -14 -13 -19 19 -52 36 -37 67 -47 67 -22 0
11 29 13 148 12 235 -2 451 6 417 14 -16 4 -82 8 -145 10 -114 1 -115 1 -75
16 28 11 59 14 100 10 162 -15 252 -52 285 -116 11 -21 20 -46 20 -55 0 -25
-24 -17 -42 13 -12 20 -33 33 -75 47 l-58 19 40 6 40 6 -59 8 c-33 5 -107 5
-165 0 -59 -5 -176 -8 -261 -8 -116 0 -144 -2 -110 -9 25 -4 133 -6 240 -3
228 6 303 -7 105 -19 -277 -16 -317 -24 -98 -19 116 2 233 1 260 -3 41 -6 29
-9 -92 -19 -77 -7 -171 -13 -210 -14 l-70 -3 100 -11 100 -12 -56 -8 c-109
-16 -150 -12 -227 19 -152 62 -296 216 -333 355 -26 100 -42 255 -33 319 4 31
7 65 5 76 -6 50 -5 154 2 198 10 59 40 90 162 172 49 33 114 85 144 115 70 69
221 236 221 245 0 3 -20 3 -44 0 -28 -5 -46 -3 -50 4 -4 6 -21 11 -37 11 -33
0 -76 -38 -85 -75 -6 -26 -52 -51 -67 -36 -13 13 0 31 25 31 17 0 18 2 8 15
-8 9 -29 15 -56 15 -34 0 -51 -7 -78 -31 -20 -17 -40 -28 -46 -24 -17 10 -11
25 13 35 12 5 16 9 10 9 -7 1 -13 8 -13 16 0 9 14 16 38 20 56 10 61 13 20 14
-46 1 -53 27 -10 37 15 3 36 9 47 14 17 7 14 9 -13 9 -40 1 -34 21 6 21 15 0
34 4 41 9 12 8 9 11 -12 16 -42 11 -71 -1 -130 -55 -53 -48 -76 -63 -61 -39 4
7 7 21 8 33 1 14 9 22 24 24 19 3 21 6 11 18 -9 11 -9 18 -1 26 11 11 189 31
202 23 4 -3 10 2 14 10 4 12 -6 13 -60 9 -67 -5 -97 2 -73 17 8 5 46 9 84 9
l70 0 52 71 c34 45 47 69 35 66 -9 -3 -39 -11 -67 -17 -75 -19 -283 -122 -339
-167 l-50 -40 -43 19 c-27 12 -56 17 -80 14 -21 -3 -44 -5 -50 -5 -22 -2 -105
-92 -124 -135 -39 -89 -49 -474 -15 -606 41 -162 41 -188 -2 -295 -12 -27 -28
-72 -37 -100 -9 -27 -18 -57 -21 -66 -7 -21 22 -49 51 -49 30 0 48 25 81 112
43 112 74 83 82 -75 4 -89 7 -100 28 -113 34 -23 81 4 90 51 7 39 15 43 35 19
8 -10 21 -13 36 -9 21 5 27 -1 53 -59 21 -47 52 -89 110 -150 71 -74 96 -92
184 -135 55 -28 138 -63 184 -77 93 -31 99 -39 87 -121 -3 -27 -7 -75 -8 -108
l-2 -60 33 -3 c79 -8 140 132 113 257 -13 61 -9 71 27 71 73 -1 172 -104 172
-181 0 -69 64 -104 105 -59 27 30 23 159 -7 212 -17 30 -19 41 -10 50 18 18
13 49 -17 98 -33 55 -78 86 -153 107 -59 16 -70 26 -43 37 19 7 19 21 -1 40
-28 28 -109 20 -203 -19 -46 -20 -86 -33 -90 -30 -13 13 -60 250 -52 258 6 6
38 3 83 -8 54 -13 129 -19 282 -23 226 -4 290 3 439 54 63 21 79 23 196 17
132 -6 283 12 359 43 28 11 32 11 32 -3 0 -9 -14 -39 -31 -67 -77 -125 -114
-151 -244 -176 -85 -16 -224 -80 -248 -115 -10 -14 -19 -38 -20 -53 -2 -26 0
-27 44 -26 31 0 55 7 74 22 50 39 57 27 25 -44 -48 -104 -49 -134 -4 -134 46
0 74 22 135 107 73 103 183 120 301 47 33 -21 38 -31 49 -84 13 -66 42 -100
85 -100 27 0 64 61 64 107 0 15 4 34 9 42 11 17 20 4 41 -59 11 -34 22 -47 44
-55 25 -8 31 -6 52 18 34 40 31 87 -11 164 -20 36 -35 78 -35 96 0 40 28 88
64 106 40 22 72 -7 107 -99 31 -81 50 -102 89 -98 25 3 25 4 25 93 l0 90 27 3
c15 2 43 -7 65 -20 86 -53 126 -58 136 -17 9 32 -12 67 -62 103 -53 38 -86 94
-78 128 4 13 31 60 61 106 66 101 81 151 73 238 -13 133 -102 242 -249 303
-95 40 -153 78 -221 145 -67 66 -99 120 -95 160 2 26 13 37 62 67 44 26 64 46
77 75 21 48 23 96 6 132 -8 15 -19 60 -26 100 -14 91 -23 108 -103 201 l-64
75 25 45 c38 69 36 148 -9 230 -20 37 -47 72 -65 82 -41 25 -115 25 -157 -1
-37 -22 -83 -24 -143 -7 -42 13 -52 31 -54 100 -1 31 3 39 23 47 13 5 31 19
40 32 20 29 21 101 1 118 -18 15 -19 53 -4 83 27 52 81 107 105 107 32 0 81
48 89 87 5 26 2 37 -19 58 -47 47 -126 20 -144 -48 -7 -27 -15 -34 -53 -43
-49 -12 -124 -48 -151 -71 -15 -13 -24 -7 -90 60 -72 73 -73 76 -56 96 32 41
-11 101 -73 101 -11 0 -31 -12 -45 -26z m236 -331 c0 -5 -43 -9 -96 -11 -129
-3 -149 -17 -26 -17 105 -1 192 -11 192 -24 0 -5 -24 -4 -52 1 -60 11 -196 5
-276 -12 -76 -17 -59 -22 29 -10 74 11 245 4 254 -10 2 -4 -37 -5 -88 -2 -237
12 -659 -96 -806 -206 -19 -14 -32 -19 -29 -11 7 21 132 90 238 132 52 21 81
35 63 32 -91 -17 -285 -108 -355 -167 -27 -21 -48 -35 -48 -31 0 5 21 29 48
54 47 46 156 110 245 144 26 10 46 20 44 22 -6 5 -130 -43 -195 -76 -88 -45
-141 -88 -175 -143 -17 -27 -33 -45 -35 -38 -8 23 66 117 123 154 74 49 225
120 300 141 228 63 351 83 513 84 72 1 132 -2 132 -6z m-907 -88 c26 -9 47
-21 47 -27 0 -6 -7 -7 -16 -4 -52 20 -254 34 -254 18 0 -4 13 -16 30 -25 16
-10 36 -25 45 -34 14 -13 18 -14 28 -1 10 12 21 13 67 3 l55 -11 -35 -22 c-41
-26 -50 -27 -50 -8 0 14 -29 30 -38 21 -3 -3 5 -16 18 -30 37 -39 13 -29 -43
18 -29 24 -69 54 -89 66 -21 12 -38 27 -38 31 0 5 17 12 38 15 20 4 42 8 47
11 21 8 142 -6 188 -21z m1367 -295 c0 -5 -11 -10 -25 -10 -14 0 -25 -4 -25
-10 0 -5 6 -7 13 -4 7 2 21 -2 32 -10 19 -15 19 -15 -5 -16 -47 -1 -56 -17
-16 -30 39 -13 51 -36 13 -26 -13 3 -36 1 -52 -3 -23 -7 -25 -9 -9 -10 27 -1
84 -21 84 -29 0 -4 -33 -6 -72 -5 -80 3 -80 1 5 -18 75 -16 88 -34 19 -25 -29
4 -76 4 -104 0 l-53 -7 97 -17 c54 -9 100 -18 102 -21 2 -2 -74 -4 -170 -4
-173 0 -217 7 -126 19 63 9 82 15 82 27 0 5 -17 7 -40 3 -25 -4 -40 -3 -40 4
0 11 33 22 66 22 11 0 29 7 40 16 18 14 17 15 -20 9 -29 -5 -37 -3 -34 7 3 7
15 14 29 16 50 6 70 13 63 23 -3 6 -15 9 -25 6 -11 -3 -19 -1 -19 4 0 5 12 11
28 15 52 11 59 16 32 24 -25 8 -24 8 8 15 40 9 57 30 18 23 -14 -3 -26 -2 -26
3 0 9 31 16 88 18 23 0 42 -3 42 -9z m-622 -106 c36 -24 17 -29 -28 -9 -28 13
-44 15 -51 8 -7 -7 2 -15 32 -24 69 -23 72 -42 17 -94 -32 -31 -41 -45 -30
-45 10 0 28 7 40 16 13 9 26 13 29 10 9 -9 -38 -44 -84 -62 -37 -14 -49 -15
-88 -4 -51 14 -85 50 -85 89 0 22 19 69 20 48 0 -4 18 5 40 19 46 31 47 43 1
20 -39 -20 -47 -20 -30 1 8 9 32 25 54 35 46 21 124 17 163 -8z m492 -214
c131 -14 135 -28 6 -27 -128 1 -167 -17 -54 -26 87 -6 168 -25 168 -39 0 -6
-8 -7 -17 -3 -31 12 -246 18 -283 7 -30 -9 -23 -10 56 -11 101 -1 154 -9 154
-22 0 -5 -29 -9 -64 -9 -68 0 -96 -6 -96 -21 0 -5 36 -9 80 -9 112 0 101 -16
-12 -18 -51 -1 -118 -8 -148 -15 -54 -13 -52 -13 80 -13 145 1 325 -23 308
-39 -3 -3 -64 2 -136 10 -102 13 -149 14 -220 6 -90 -10 -363 -86 -432 -121
-69 -34 -257 -100 -326 -114 -50 -10 -59 -14 -34 -14 70 -2 240 47 339 97 64
33 179 69 305 96 126 27 166 28 69 1 -107 -30 -217 -68 -258 -88 -47 -24 -136
-58 -260 -99 -100 -34 -135 -56 -70 -44 53 9 171 44 320 95 170 58 390 110
468 110 65 0 212 -22 278 -42 42 -12 97 -53 87 -63 -4 -4 -20 2 -37 14 -58 41
-109 52 -261 56 l-145 4 121 -8 c128 -9 164 -16 164 -33 0 -5 -8 -7 -17 -4 -9
4 -64 9 -122 12 -90 5 -126 2 -236 -20 -71 -14 -150 -35 -175 -45 -193 -83
-335 -130 -432 -144 -68 -10 -40 7 68 42 57 18 103 36 100 38 -3 3 -26 -2 -53
-10 -59 -19 -187 -44 -270 -53 -35 -4 -63 -10 -63 -13 0 -10 85 -31 125 -31
19 0 35 -4 35 -10 0 -15 -218 -11 -260 4 -25 10 -34 18 -32 32 2 11 3 28 3 38
0 30 24 69 71 114 48 47 126 102 144 102 7 0 30 18 52 39 22 21 51 42 63 46
96 28 343 104 471 145 70 23 106 29 131 25 22 -5 45 -2 63 8 38 20 68 53 59
66 -8 13 4 13 125 1z m-150 -587 c0 -11 -392 -68 -535 -77 -318 -22 -458 -19
-469 10 -5 13 7 14 87 9 216 -13 396 -4 612 31 196 31 305 41 305 27z m-1774
-31 c-3 -5 -45 -12 -93 -15 -87 -6 -153 -22 -153 -37 0 -4 20 -3 45 3 57 13
66 4 32 -31 -15 -16 -27 -33 -27 -40 0 -6 -19 -29 -42 -52 -37 -35 -39 -40
-20 -40 27 0 28 -7 5 -33 -18 -19 -17 -20 35 -15 29 3 55 1 58 -3 3 -5 -9 -9
-26 -9 -33 0 -90 -25 -90 -40 0 -5 12 -5 29 0 41 12 47 0 9 -19 -33 -17 -53
-46 -24 -35 9 3 16 1 16 -5 0 -7 -7 -14 -15 -17 -34 -13 -14 -29 33 -26 l47 3
-47 -22 c-56 -25 -63 -43 -14 -34 20 4 36 2 40 -4 4 -6 0 -11 -8 -11 -22 0
-66 -22 -66 -33 0 -5 19 -7 45 -5 25 3 45 2 45 -3 0 -5 -11 -9 -24 -9 -13 0
-34 -9 -47 -20 l-24 -21 41 6 c26 4 45 2 49 -4 3 -7 -2 -11 -14 -11 -25 0 -71
-20 -71 -32 0 -4 17 -8 38 -9 20 0 30 -3 22 -6 -20 -7 -50 -34 -50 -45 0 -4
14 -8 30 -8 31 0 41 -16 15 -26 -31 -12 -13 -24 38 -25 59 -1 115 -17 62 -18
-38 -1 -105 -20 -105 -29 0 -4 31 -6 70 -4 80 4 97 -13 23 -23 -82 -11 -96
-23 -28 -26 74 -2 124 -12 109 -22 -6 -3 -44 -10 -83 -13 -39 -4 -73 -10 -75
-13 -2 -3 36 -6 84 -6 80 0 112 -6 99 -20 -3 -2 -49 -7 -102 -11 -54 -4 -100
-11 -103 -15 -2 -4 27 -6 66 -4 54 3 70 1 70 -10 0 -8 -9 -17 -20 -20 -30 -10
-24 -23 13 -27 l32 -4 -27 -12 c-38 -16 -37 -35 1 -27 37 8 46 -14 35 -88 -4
-29 -6 -62 -5 -74 1 -14 -5 -23 -18 -28 -31 -9 -43 3 -38 38 5 35 -18 179 -33
207 -16 29 -47 34 -75 12 -16 -13 -21 -22 -13 -24 8 -3 5 -21 -12 -64 -30 -75
-37 -84 -67 -84 -20 0 -24 4 -20 18 16 50 40 111 57 147 44 91 46 146 10 295
-34 139 -38 231 -21 462 11 156 32 204 90 214 20 3 43 7 51 9 34 7 161 4 156
-3z m1784 -21 c0 -5 -30 -12 -67 -16 -38 -3 -113 -13 -168 -21 -194 -28 -340
-45 -390 -45 -27 1 -111 -1 -185 -3 -150 -4 -201 0 -194 18 3 8 71 11 237 11
194 0 253 4 362 22 240 41 405 55 405 34z m-1439 -466 c110 -39 224 -65 339
-75 69 -7 127 -14 129 -16 13 -13 -241 -2 -294 12 -33 9 -75 17 -92 17 -18 0
-33 4 -33 8 0 11 -54 39 -74 39 -24 0 -72 -50 -99 -102 l-24 -46 21 -11 c11
-6 81 -24 155 -40 73 -17 136 -32 139 -35 12 -13 -75 -5 -161 15 -170 38 -255
83 -187 99 21 5 22 7 8 13 -10 3 -18 14 -18 23 0 12 6 15 25 10 14 -4 25 -2
25 4 0 5 -5 10 -11 10 -6 0 -9 6 -6 13 2 6 11 11 19 9 9 -1 18 7 21 18 3 12
13 20 26 20 12 0 21 6 21 15 0 19 16 19 71 0z m1888 -34 c2 -1 -2 -7 -8 -15
-14 -16 -11 -75 4 -84 19 -13 115 -8 115 6 0 6 -12 12 -26 12 -16 0 -24 5 -22
12 3 8 20 11 49 9 49 -3 91 -20 52 -21 -16 0 -29 -12 -42 -37 -11 -21 -20 -32
-21 -25 0 20 -240 14 -240 -7 0 -3 49 -6 110 -6 65 0 114 -5 120 -11 8 -8 -23
-13 -111 -17 -74 -3 -126 -10 -133 -17 -8 -9 9 -11 77 -8 80 4 108 -2 72 -15
-16 -7 -57 -86 -50 -97 2 -4 -23 -10 -56 -13 -34 -3 -66 -10 -72 -16 -8 -8 19
-11 96 -11 65 0 107 -4 107 -10 0 -6 -28 -10 -65 -10 -71 0 -162 -16 -171 -31
-3 -6 16 -7 48 -3 29 3 64 1 78 -4 l25 -9 -30 -6 c-16 -3 -56 -9 -87 -12 -69
-8 -91 -28 -27 -25 71 4 101 1 94 -10 -3 -5 -33 -10 -65 -10 -80 0 -111 -13
-45 -20 l50 -5 -32 -17 c-17 -10 -46 -38 -64 -63 -26 -36 -39 -45 -63 -46
l-31 -1 29 -9 c17 -4 63 -10 103 -12 111 -7 100 -17 -18 -18 -122 -1 -193 -16
-89 -19 100 -2 119 -16 35 -24 -151 -16 -140 -24 33 -23 153 0 195 -4 181 -17
-2 -2 -103 -8 -225 -14 -137 -6 -228 -14 -240 -21 -16 -10 -12 -12 23 -8 24 3
46 1 49 -4 3 -5 -5 -9 -17 -9 -24 0 -100 -20 -111 -29 -4 -3 13 -5 38 -4 l45
2 -43 -46 c-68 -72 -126 -123 -140 -123 -21 0 -17 30 11 87 16 33 37 66 46 73
9 7 26 27 37 43 l22 30 -43 -6 c-26 -3 -64 -20 -96 -41 -86 -60 -146 -40 -67
22 61 48 119 72 210 88 131 22 161 45 259 193 92 138 98 151 113 271 6 47 18
111 27 142 l16 57 69 7 c37 4 71 11 74 15 7 12 -31 11 -97 -1 -35 -7 -56 -7
-63 0 -14 14 -6 18 65 34 52 12 99 14 128 7z m-783 -300 c-3 -4 -34 -11 -68
-14 -35 -3 -106 -11 -158 -18 -62 -7 -166 -9 -300 -5 -301 9 -280 26 36 27
142 1 293 5 334 9 113 10 162 11 156 1z m-80 -50 c-12 -19 -208 -36 -421 -36
-209 1 -295 7 -295 23 0 4 116 6 257 4 142 -1 290 1 328 6 95 13 137 14 131 3z
m-421 -651 c3 -6 -4 -10 -17 -10 -21 -1 -22 -1 -5 -11 11 -6 30 -9 44 -6 21 4
34 -4 64 -37 39 -41 65 -97 55 -115 -4 -5 -15 -8 -26 -6 -12 2 -18 0 -15 -6 4
-5 15 -9 26 -9 12 0 19 -7 19 -18 0 -24 -28 -62 -45 -62 -16 0 -31 43 -20 59
8 13 -51 103 -101 153 -42 44 -99 63 -164 54 -41 -5 -43 -4 -26 9 23 17 201
22 211 5z m-210 -50 c4 -6 -8 -10 -29 -10 -20 0 -36 -4 -36 -10 0 -5 14 -10
31 -10 59 0 69 -13 69 -88 0 -56 -5 -76 -30 -119 -26 -45 -54 -73 -74 -73 -3
0 -6 20 -6 45 0 25 4 45 10 45 16 0 27 63 18 100 -18 69 -28 80 -118 118 -20
9 -7 11 67 11 51 1 95 -3 98 -9z"/>
<path d="M3178 3231 c-39 -13 -88 -50 -88 -67 0 -8 12 -19 26 -24 59 -23 138
-4 183 44 18 19 19 25 8 34 -19 16 -96 23 -129 13z"/>
<path d="M3365 2915 c-22 -8 -76 -23 -119 -35 -89 -24 -133 -50 -138 -82 -2
-18 -19 -27 -93 -50 -113 -35 -123 -39 -109 -45 7 -2 88 21 180 51 215 71 254
86 254 96 0 5 -16 2 -35 -6 -19 -7 -42 -14 -51 -14 -33 0 15 38 70 56 69 23
114 43 96 43 -8 0 -33 -6 -55 -14z"/>
<path d="M2633 2918 c-43 -9 -141 -88 -214 -173 -19 -22 -49 -56 -66 -75 -18
-19 -44 -56 -58 -82 -23 -41 -24 -48 -10 -48 10 0 26 12 37 26 19 23 25 25 69
19 33 -5 49 -3 49 4 0 6 -16 11 -36 11 -54 0 -37 24 22 31 27 3 41 7 31 7 -28
3 -14 26 23 38 25 8 29 12 16 17 -34 13 -5 28 40 21 30 -4 44 -3 44 5 0 6 -10
11 -23 11 -27 0 -64 24 -51 33 5 3 29 1 54 -3 25 -5 49 -5 53 -1 5 5 -10 11
-32 15 -27 4 -41 11 -41 21 0 19 15 22 63 10 17 -5 27 -3 27 4 0 6 -11 13 -25
17 -48 12 -16 39 33 28 26 -5 26 -5 7 11 -20 16 -20 16 -1 30 11 8 29 12 42 9
12 -3 25 -1 28 4 9 14 -33 19 -81 10z"/>
<path d="M1980 1621 c-5 -11 -10 -55 -10 -98 l0 -79 51 -13 c53 -14 79 -8 36
8 -41 16 -42 31 -2 31 22 0 34 4 30 10 -3 6 -15 10 -26 10 -14 0 -19 5 -17 18
3 12 12 16 32 14 17 -2 25 1 21 7 -3 6 -15 11 -26 11 -10 0 -19 7 -19 15 0 10
10 15 33 15 l32 1 -30 13 c-16 7 -39 23 -49 35 -24 26 -42 27 -56 2z"/>
</g>
</svg>
